<svg width="14" height="22" viewBox="0 0 14 22" fill="none" xmlns="http://www.w3.org/2000/svg">
<path d="M12.5 4.1C13.5 5.4 14 6.6 14 8C14 9.7 13.3 11.3 11.6 13.1C9.7 15.1 8 17.3 8 19.5C8 19.9 8.1 20.3 8.2 20.8C8.2 20.9 8.2 21 8.1 21.1C8 21.2 7.9 21.1 7.9 21C6.9 19.7 6.4 18.5 6.4 17.1C6.4 15.4 7.1 13.8 8.8 12C10.7 10 12.4 7.8 12.4 5.6C12.4 5.2 12.3 4.8 12.2 4.3C12.2 4.2 12.2 4.1 12.3 4C12.4 4 12.4 4 12.5 4.1ZM4.7 1.1C5.4 2 5.7 3 5.7 3.9C5.7 5.2 5.1 6.4 3.9 7.7C2.5 9.2 1.2 10.9 1.2 12.5C1.2 12.8 1.3 13.2 1.4 13.4C1.4 13.5 1.4 13.5 1.3 13.6C1.2 13.7 1.1 13.6 1.1 13.6C0.3 12.6 0 11.6 0 10.7C0 9.4 0.6 8.2 1.8 6.9C3.2 5.4 4.5 3.7 4.5 2.1C4.5 1.8 4.4 1.4 4.3 1.2V1C4.5 1 4.6 1 4.7 1.1ZM5.1 8.9C7 6.9 8.7 4.7 8.7 2.5C8.7 2.1 8.6 1.7 8.5 1.2C8.5 1.1 8.5 1 8.6 0.900003C8.7 0.800003 8.8 0.900003 8.8 1C9.8 2.3 10.3 3.5 10.3 4.9C10.3 6.6 9.6 8.2 7.9 10C6 12 4.3 14.2 4.3 16.4C4.3 16.8 4.4 17.2 4.5 17.7C4.5 17.8 4.5 17.9 4.4 18C4.3 18.1 4.2 18 4.2 17.9C3.2 16.6 2.7 15.4 2.7 14C2.7 12.3 3.4 10.7 5.1 8.9Z" fill="#34A853"/>
</svg>
